<?xml version="1.0" encoding="utf-8"?>
<!-- Generator: Adobe Illustrator 19.0.0, SVG Export Plug-In . SVG Version: 6.00 Build 0)  -->
<svg version="1.1" xmlns="http://www.w3.org/2000/svg" xmlns:xlink="http://www.w3.org/1999/xlink" x="0px" y="0px"
	 viewBox="0 0 865.8 85.2" style="enable-background:new 0 0 865.8 85.2;" xml:space="preserve">
<style type="text/css">
	.st0{fill:#1F2C47;}
	.st1{fill:#FFFFFF;}
</style>
<g id="Box">
	<g id="XMLID_11_">
		<rect id="XMLID_19_" x="0" class="st0" width="85.2" height="85.2"/>
		<g id="XMLID_12_">
			<g id="XMLID_16_">
				<path id="XMLID_17_" class="st1" d="M38.7,25.7c2.3,0,3.5-1.1,3.5-3.4c0-0.1,0.1-0.2,0.2-0.2H43c0.1,0,0.2,0.1,0.2,0.2V32
					c0,0.1-0.1,0.2-0.2,0.2h-0.6c-0.1,0-0.2-0.1-0.2-0.2c0-1.6-0.5-2.7-1.4-3.3c-0.5-0.3-1.2-0.5-2.1-0.5H28.5
					c-0.4,0-0.6,0.2-0.6,0.7v13.4c0,1.2,0.7,2,2.1,2.6c1.4,0.6,2.3,0.8,2.7,0.8c0.4,0,0.6,0.1,0.6,0.2v0.6c0,0.1-0.1,0.2-0.2,0.2
					H18.8c-0.1,0-0.2-0.1-0.2-0.2v-0.6c0-0.1,0.1-0.2,0.4-0.2c0.3,0,0.8-0.1,1.4-0.4c0.6-0.3,1.2-0.7,1.7-1.2c0.5-0.5,0.7-1.2,0.7-2
					V14c0-1.1-0.6-1.9-1.8-2.4c-0.7-0.3-1.4-0.4-2.1-0.4h-0.1c-0.1,0-0.2-0.1-0.2-0.2v-0.6c0-0.1,0.1-0.2,0.2-0.2h24.5
					c0.2,0,0.4,0.1,0.5,0.1c0.1,0.1,0.2,0.2,0.2,0.5V17c0,0.2,0,0.3-0.1,0.4c-0.1,0.1-0.2,0.1-0.3,0.1h-0.3c0,0-0.2-0.5-0.4-1.4
					c-0.2-0.9-0.5-1.6-0.9-2.1c-0.7-0.8-1.5-1.2-2.4-1.3c-0.4,0-0.8-0.1-1.3-0.1h-9.9c-0.3,0-0.5,0.2-0.5,0.5v12
					c0,0.4,0.2,0.6,0.6,0.6H38.7z"/>
			</g>
			<g id="XMLID_13_">
				<path id="XMLID_14_" class="st1" d="M36.2,74.8v-0.7c0-0.1,0.1-0.2,0.2-0.2H37c0.7-0.1,1.5-0.1,2.2-0.1c0.8,0,1.5-0.1,2.1-0.3
					c1.4-0.4,2.1-1.5,2.1-3.1V43c0-1.7-1-2.8-3-3.3c-0.6-0.1-1.2-0.2-1.7-0.3h-0.5c-0.1,0-0.2-0.1-0.2-0.2v-0.6
					c0-0.1,0.1-0.2,0.2-0.2h24.7c0.3,0,0.5,0.1,0.7,0.2c0.1,0.1,0.2,0.4,0.3,0.7l0.5,7.5c0,0.2-0.1,0.3-0.4,0.3
					c-0.3,0-0.5-0.1-0.6-0.2C63.1,46.7,63,46,62.8,45c-0.2-1.1-0.5-2-0.9-2.7c-0.4-0.7-1.2-1.2-2.3-1.4H48.8c-0.2,0-0.3,0.1-0.3,0.3
					v13.4c0,0.2,0.1,0.3,0.3,0.3h9c2.3,0,3.5-1.4,3.5-4.1c0-0.1,0.1-0.2,0.2-0.2H62c0.1,0,0.2,0.1,0.2,0.2V62c0,0.1-0.1,0.2-0.2,0.2
					h-0.6c-0.1,0-0.2-0.1-0.2-0.2c0-2.6-0.7-4-2.2-4.4c-0.4-0.1-0.9-0.2-1.3-0.2h-8.9c-0.2,0-0.3,0.1-0.3,0.3v12.7
					c0,1.3,0.6,2,1.8,2.2c0.3,0.1,0.7,0.1,1.1,0.1H60c1.8,0,3.2-0.8,4.2-2.4c0.7-1.1,1.1-2.4,1.3-3.9c0.1-0.5,0.3-0.7,0.8-0.7
					c0.2,0,0.3,0.1,0.3,0.3l-0.9,8.7c-0.1,0.2-0.2,0.4-0.4,0.4h-29C36.2,75,36.2,75,36.2,74.8z"/>
			</g>
		</g>
	</g>
</g>
<g id="Text">
	<g id="XMLID_1_">
		<path id="XMLID_3_" class="st0" d="M130,46c3.2,0,4.8-1.6,4.8-4.7c0-0.2,0.1-0.3,0.3-0.3h0.9c0.2,0,0.3,0.1,0.3,0.3v13.3
			c0,0.2-0.1,0.3-0.3,0.3h-0.9c-0.2,0-0.3-0.1-0.3-0.3c0-2.2-0.6-3.7-1.9-4.6c-0.7-0.5-1.6-0.7-2.9-0.7h-14.1c-0.6,0-0.9,0.3-0.9,1
			v18.4c0,1.6,1,2.8,2.9,3.6c1.9,0.8,3.2,1.2,3.7,1.2s0.8,0.1,0.8,0.3v0.9c0,0.2-0.1,0.3-0.3,0.3h-19.6c-0.2,0-0.3-0.1-0.3-0.3v-0.9
			c0-0.2,0.2-0.3,0.6-0.3c0.4,0,1-0.2,1.9-0.6c0.9-0.4,1.6-1,2.3-1.7c0.7-0.8,1-1.7,1-2.7V29.8c0-1.6-0.8-2.7-2.5-3.3
			c-1-0.4-1.9-0.6-2.8-0.6h-0.1c-0.2,0-0.3-0.1-0.3-0.3v-0.9c0-0.2,0.1-0.3,0.3-0.3h33.8c0.3,0,0.5,0.1,0.6,0.2
			c0.1,0.1,0.2,0.3,0.2,0.6V34c0,0.3,0,0.5-0.1,0.5c-0.1,0.1-0.2,0.1-0.4,0.1h-0.4c0,0-0.2-0.7-0.5-2c-0.3-1.3-0.7-2.3-1.3-3
			c-1-1.1-2.1-1.6-3.3-1.8c-0.5,0-1.1-0.1-1.8-0.1h-13.6c-0.5,0-0.7,0.2-0.7,0.7v16.6c0,0.6,0.3,0.8,0.9,0.8H130z"/>
		<path id="XMLID_5_" class="st0" d="M142.7,75c-0.2,0-0.3-0.2-0.3-0.6V74c0-0.2,0.1-0.3,0.3-0.3c0.1,0,0.3,0,0.6-0.1
			c0.3,0,0.6-0.1,0.8-0.1c0.3,0,0.6-0.1,0.8-0.1c0.3-0.1,0.4-0.1,0.5-0.1c2.1-0.5,3.2-1.7,3.2-3.6v-33c0-1.8-0.7-3.1-2.2-3.8
			c-0.9-0.5-1.8-0.7-2.8-0.7h-1.2c-0.2,0-0.3-0.1-0.3-0.3v-0.8c0-0.2,0.1-0.3,0.4-0.3l17.2-0.5h3.2c3.7,0.3,6.8,1.6,9.3,4
			c2.5,2.4,3.7,5.4,3.7,9c0,3.6-1.5,6.3-4.4,8.3c-0.9,0.6-1.9,1.1-3,1.6l9.5,15.5c1.6,2.7,3.9,4.6,6.6,5.7c0.2,0.1,0.3,0.2,0.3,0.4
			c0,0.5-0.3,0.8-1,0.8c-4.7,0-8.4-1.8-11.2-5.3c-0.6-0.8-1.2-1.7-1.8-2.7L163,55.1l-7.4-0.3h-0.3c-0.3,0-0.5,0.1-0.5,0.4v14.4
			c0,1.1,0.3,2,1,2.6c0.6,0.6,1.8,0.9,3.3,1.2c0.4,0.1,0.9,0.2,1.5,0.3c0.6,0.1,1,0.2,1.2,0.2c0.2,0,0.3,0.1,0.3,0.3v0.8
			c0,0.2-0.1,0.3-0.3,0.3H142.7z M157.3,32.1c-0.3,0-0.5,0-0.8,0c-0.3,0-0.6,0-1.1,0c-0.4,0-0.7,0.2-0.7,0.5v19l0.1,0.9
			c0.1,0.4,0.3,0.7,0.6,0.7l3.2,0.2c5.9,0,9.4-2.1,10.6-6.3c0.4-1.3,0.6-2.8,0.6-4.5c0-3.3-1-5.9-3.1-7.8c-2.1-1.9-4.7-2.8-7.9-2.8
			c-0.3,0-0.6,0-0.8,0C157.8,32.1,157.6,32.1,157.3,32.1z"/>
		<path id="XMLID_8_" class="st0" d="M193.4,35.9c0-2.5-1.4-3.8-4.3-3.8c-0.5,0-0.7-0.1-0.7-0.3v-0.8c0-0.2,0.1-0.3,0.3-0.3h15.7
			c0.2,0,0.3,0.1,0.3,0.3v0.8c0,0.2-0.5,0.3-1.4,0.3c-0.9,0-1.8,0.3-2.5,0.9c-0.8,0.6-1.2,1.8-1.2,3.6V70c0,2.5,1.4,3.8,4.3,3.8
			c0.4,0,0.7,0.1,0.7,0.3v0.8c0,0.2-0.1,0.3-0.3,0.3h-15.7c-0.2,0-0.3-0.1-0.3-0.3V74c0-0.2,0.5-0.3,1.4-0.3c0.9,0,1.8-0.3,2.5-0.9
			c0.8-0.6,1.2-1.8,1.2-3.6V35.9z"/>
		<path id="XMLID_10_" class="st0" d="M208.8,31.1c0-0.2,0.1-0.3,0.3-0.3h0.7l10-0.2c1.2,0,2.5-0.1,3.9-0.1h3.9
			c3.6,0,6.4,0.1,8.2,0.4c1.8,0.3,3.6,0.6,5.4,1c1.8,0.4,3.6,1.2,5.6,2.5c2,1.3,3.7,2.9,5.2,4.7c3.1,3.9,4.6,8.2,4.6,12.7
			s-1.2,8.6-3.6,12.2c-3.4,5.2-8.4,8.7-14.9,10.3c-2.1,0.5-4.2,0.8-6.4,0.8H209c-0.2,0-0.3-0.1-0.3-0.3v-0.9c0-0.2,0.1-0.3,0.3-0.3
			h0.7c3.8,0,5.7-1.2,5.7-3.6V35.7c0-1.2-0.4-2-1.3-2.6c-0.9-0.6-1.9-0.9-3-0.9h-2c-0.2,0-0.3-0.1-0.3-0.3V31.1z M222.3,32
			c-0.5,0-0.8,0.3-0.8,0.8v38.3c0,1.5,1.4,2.3,4.3,2.4c0.9,0,1.8,0,2.7,0c6.7,0,11.9-1.9,15.7-5.6c3.8-3.7,5.7-8.7,5.7-14.9
			c0-6.2-1.8-11.3-5.3-15.2c-3.5-3.9-8.1-5.9-13.9-5.9H222.3z"/>
		<path id="XMLID_22_" class="st0" d="M259.6,74.8v-0.9c0-0.2,0.1-0.3,0.3-0.3h0.7c0.9-0.1,1.8-0.1,2.7-0.1c0.9,0,1.8-0.1,2.5-0.3
			c1.7-0.5,2.6-1.8,2.6-3.8v-33c0-2.1-1.2-3.4-3.7-3.9c-0.7-0.1-1.4-0.3-2.1-0.4h-0.7c-0.2,0-0.3-0.1-0.3-0.3v-0.8
			c0-0.2,0.1-0.3,0.3-0.3h29.8c0.4,0,0.6,0.1,0.8,0.2c0.2,0.1,0.3,0.4,0.3,0.9l0.6,9.1c0,0.2-0.2,0.3-0.5,0.3s-0.5-0.1-0.7-0.3
			c-0.1-0.2-0.3-1-0.5-2.3c-0.2-1.3-0.6-2.4-1.1-3.3c-0.5-0.9-1.4-1.4-2.8-1.7h-13c-0.3,0-0.4,0.1-0.4,0.4v16.2
			c0,0.2,0.1,0.3,0.3,0.3h10.8c2.8,0,4.2-1.6,4.2-4.9c0-0.2,0.1-0.3,0.3-0.3h0.8c0.2,0,0.3,0.1,0.3,0.3v13.4c0,0.2-0.1,0.3-0.3,0.3
			H290c-0.2,0-0.3-0.1-0.3-0.3c0-3.1-0.9-4.9-2.7-5.3c-0.5-0.1-1-0.2-1.6-0.2h-10.7c-0.2,0-0.3,0.1-0.3,0.3v15.2
			c0,1.6,0.7,2.5,2.2,2.7c0.4,0.1,0.9,0.1,1.3,0.1h10.4c2.1,0,3.8-0.9,5-2.8c0.9-1.4,1.4-2.9,1.6-4.7c0.1-0.6,0.4-0.9,0.9-0.9
			c0.3,0,0.4,0.1,0.4,0.4l-1,10.5c-0.1,0.3-0.3,0.4-0.4,0.4h-34.8C259.7,75,259.6,75,259.6,74.8z"/>
		<path id="XMLID_24_" class="st0" d="M300.4,75c-0.2,0-0.3-0.1-0.3-0.3V74c0-0.2,0.1-0.3,0.3-0.3h0.8c1.8,0,3.4-0.4,4.7-1.1
			c0.5-0.3,1-0.8,1.3-1.5c0.4-0.7,0.5-1.4,0.5-2.2V35.9c0-1.3-0.8-2.3-2.5-3c-1.2-0.5-2.4-0.8-3.7-0.8h-0.7c-0.2,0-0.3-0.1-0.3-0.3
			v-0.8c0-0.2,0.1-0.3,0.3-0.3H322c0.2,0,0.3,0.1,0.3,0.3v0.8c0,0.2-0.1,0.3-0.3,0.3h-1.3c-2.1,0-4,0.3-5.7,0.9
			c-0.5,0.2-0.8,0.4-0.9,0.8c-0.1,0.4-0.2,1-0.2,2v34.7c0,0.4,0.2,0.7,0.6,1c0.3,0.3,0.7,0.5,1.1,0.5h12.4c1.9,0,3.7-1.1,5.5-3.3
			c0.5-0.6,1.1-1.4,1.8-2.3s1.1-1.5,1.3-1.6c0.7-0.5,1-0.5,1,0c0,0.1,0,0.3-0.1,0.4l-4.7,9.3c-0.2,0.4-0.4,0.6-0.7,0.6H300.4z"/>
		<path id="XMLID_26_" class="st0" d="M339.2,75c-0.2,0-0.3-0.1-0.3-0.3V74c0-0.2,0.1-0.3,0.3-0.3h0.8c1.8,0,3.4-0.4,4.7-1.1
			c0.5-0.3,1-0.8,1.3-1.5c0.4-0.7,0.5-1.4,0.5-2.2V35.9c0-1.3-0.8-2.3-2.5-3c-1.2-0.5-2.4-0.8-3.7-0.8h-0.7c-0.2,0-0.3-0.1-0.3-0.3
			v-0.8c0-0.2,0.1-0.3,0.3-0.3h21.2c0.2,0,0.3,0.1,0.3,0.3v0.8c0,0.2-0.1,0.3-0.3,0.3h-1.3c-2.1,0-4,0.3-5.7,0.9
			c-0.5,0.2-0.8,0.4-0.9,0.8c-0.1,0.4-0.2,1-0.2,2v34.7c0,0.4,0.2,0.7,0.6,1c0.3,0.3,0.7,0.5,1.1,0.5h12.4c1.9,0,3.7-1.1,5.5-3.3
			c0.5-0.6,1.1-1.4,1.8-2.3s1.1-1.5,1.3-1.6c0.7-0.5,1-0.5,1,0c0,0.1,0,0.3-0.1,0.4l-4.7,9.3c-0.2,0.4-0.4,0.6-0.7,0.6H339.2z"/>
		<path id="XMLID_28_" class="st0" d="M393.9,74.7v-1c0-0.2,0.1-0.3,0.3-0.3h0.8c1-0.1,2-0.1,3.1-0.1c1.1,0,2-0.1,2.9-0.4
			c2-0.6,2.9-2,2.9-4.3V30.9c0-2.4-1.4-3.9-4.2-4.5c-0.8-0.2-1.6-0.3-2.4-0.4h-0.8c-0.2,0-0.3-0.1-0.3-0.3v-0.9
			c0-0.2,0.1-0.3,0.3-0.3h34.1c0.4,0,0.7,0.1,0.9,0.2c0.2,0.2,0.3,0.5,0.4,1l0.6,10.4c0,0.2-0.2,0.4-0.5,0.4c-0.4,0-0.6-0.1-0.8-0.3
			c-0.1-0.2-0.3-1.1-0.6-2.6c-0.2-1.5-0.6-2.8-1.2-3.8c-0.6-1-1.6-1.6-3.2-1.9h-15c-0.3,0-0.5,0.2-0.5,0.5v18.5
			c0,0.2,0.1,0.4,0.4,0.4h12.4c3.2,0,4.8-1.9,4.8-5.6c0-0.2,0.1-0.3,0.3-0.3h0.9c0.2,0,0.3,0.1,0.3,0.3V57c0,0.2-0.1,0.3-0.3,0.3
			h-0.9c-0.2,0-0.3-0.1-0.3-0.3c0-3.5-1-5.6-3.1-6.1c-0.6-0.1-1.2-0.2-1.8-0.2h-12.3c-0.2,0-0.4,0.1-0.4,0.4v17.5
			c0,1.8,0.8,2.8,2.5,3c0.5,0.1,1,0.1,1.5,0.1h11.9c2.5,0,4.4-1.1,5.7-3.3c1-1.6,1.6-3.3,1.8-5.3c0.1-0.7,0.4-1,1.1-1
			c0.3,0,0.4,0.2,0.4,0.5l-1.2,12c-0.1,0.3-0.3,0.5-0.5,0.5h-40C394,75,393.9,74.9,393.9,74.7z"/>
		<path id="XMLID_30_" class="st0" d="M459.1,74.8c0,0.2-0.1,0.3-0.3,0.3h-18.4c-0.1,0-0.2-0.1-0.2-0.3v-0.6c0-0.2,0.4-0.3,1.3-0.3
			c0.9,0,2-0.3,3.3-1c1.3-0.6,1.9-1.6,1.9-2.9V35.9c0-2.4-2.1-3.7-6.3-3.9c-0.2,0-0.3-0.1-0.3-0.3v-0.6c0-0.2,0.1-0.3,0.2-0.3h18.4
			c0.2,0,0.3,0.1,0.3,0.3v0.6c0,0.1-0.4,0.2-1.3,0.2s-1.8,0.3-2.9,0.8c-1.4,0.7-2.1,1.8-2.1,3.3v13.8c0,1.8,0.2,2.8,0.5,2.8
			c0.9,0,2-0.6,3.4-1.7c1.4-1.1,2.6-2.3,3.7-3.5c1.1-1.2,2.1-2.6,3.2-4.3s1.8-2.8,2.2-3.4c1.6-2.2,2.3-3.9,2.3-5s-0.5-1.9-1.4-2.2
			c-0.6-0.3-1.5-0.4-2.7-0.4h-0.3c-0.2,0-0.3-0.1-0.3-0.3v-0.6c0-0.2,0.1-0.3,0.3-0.3h18.1c0.2,0,0.3,0.1,0.3,0.3v0.6
			c0,0.3-0.1,0.4-0.4,0.4c-2.7,0.1-4.6,0.4-5.9,1s-2.2,1.3-3,2c-0.7,0.7-1.5,1.8-2.4,3.3c-2.7,4.5-5.3,8.1-8,10.9
			c-1.1,1.1-1.7,1.9-1.8,2.1c0.1,0.2,1,1,2.6,2.5c4,3.7,8.2,8.6,12.6,14.9c1.6,2.4,3.8,3.9,6.5,4.4c1.8,0.4,2.9,0.6,3.4,0.6
			c0.5,0,0.7,0.1,0.7,0.3v0.5c0,0.2-0.1,0.3-0.3,0.3h-20.5c-0.2,0-0.3-0.1-0.3-0.3v-0.6c0-0.2,0.4-0.3,1.1-0.3
			c2.4-0.2,3.5-0.9,3.5-2.1c-0.1-1.2-2.2-4.1-6.3-8.7c-0.7-0.8-1.5-1.7-2.3-2.7c-3.2-3.9-5.8-5.8-7.8-5.8h-0.6
			c-0.2,0-0.3,0.1-0.3,0.4v14.6c0,2.9,2,4.4,6,4.4c0.2,0,0.3,0.1,0.3,0.3V74.8z"/>
		<path id="XMLID_32_" class="st0" d="M486.9,74.8v-0.9c0-0.2,0.1-0.3,0.3-0.3h0.7c0.9-0.1,1.8-0.1,2.7-0.1c0.9,0,1.8-0.1,2.5-0.3
			c1.7-0.5,2.6-1.8,2.6-3.8v-33c0-2.1-1.2-3.4-3.7-3.9c-0.7-0.1-1.4-0.3-2.1-0.4h-0.7c-0.2,0-0.3-0.1-0.3-0.3v-0.8
			c0-0.2,0.1-0.3,0.3-0.3h29.8c0.4,0,0.6,0.1,0.8,0.2c0.2,0.1,0.3,0.4,0.3,0.9l0.6,9.1c0,0.2-0.2,0.3-0.5,0.3
			c-0.3,0-0.5-0.1-0.7-0.3c-0.1-0.2-0.3-1-0.5-2.3s-0.6-2.4-1.1-3.3s-1.4-1.4-2.8-1.7h-13c-0.3,0-0.4,0.1-0.4,0.4v16.2
			c0,0.2,0.1,0.3,0.3,0.3h10.8c2.8,0,4.2-1.6,4.2-4.9c0-0.2,0.1-0.3,0.3-0.3h0.8c0.2,0,0.3,0.1,0.3,0.3v13.4c0,0.2-0.1,0.3-0.3,0.3
			h-0.8c-0.2,0-0.3-0.1-0.3-0.3c0-3.1-0.9-4.9-2.7-5.3c-0.5-0.1-1-0.2-1.6-0.2H502c-0.2,0-0.3,0.1-0.3,0.3v15.2
			c0,1.6,0.7,2.5,2.2,2.7c0.4,0.1,0.9,0.1,1.3,0.1h10.4c2.1,0,3.8-0.9,5-2.8c0.9-1.4,1.4-2.9,1.6-4.7c0.1-0.6,0.4-0.9,0.9-0.9
			c0.3,0,0.4,0.1,0.4,0.4l-1,10.5c-0.1,0.3-0.3,0.4-0.4,0.4h-34.8C487,75,486.9,75,486.9,74.8z"/>
		<path id="XMLID_34_" class="st0" d="M528.3,75c-0.2,0-0.3-0.1-0.3-0.3V74c0-0.2,0.1-0.3,0.3-0.3h0.7c1.1,0,1.9-0.1,2.3-0.3
			c1.5-0.8,2.3-2.8,2.3-6.2V34.8c0-1.4-1.4-2.2-4.1-2.5c-0.6-0.1-1-0.1-1.3-0.1c-0.2,0-0.4-0.1-0.4-0.3v-0.8c0-0.2,0.1-0.3,0.3-0.3
			h11.5l29.7,32.8c0.1,0.1,0.2,0.2,0.2,0.2s0.1,0.1,0.2,0.1s0.1-0.1,0.1-0.3V42.2c0-4.1-0.3-6.9-1-8.1c-0.7-1.3-2.1-1.9-4.2-1.9
			h-1.6c-0.2,0-0.3-0.1-0.3-0.3v-0.8c0-0.2,0.1-0.3,0.3-0.3h16.3c0.2,0,0.3,0.1,0.3,0.3v0.8c0,0.2-0.3,0.3-0.9,0.3s-1.6,0.4-3,1.1
			c-1.4,0.7-2.1,1.6-2.1,2.6v38.3c0,0.5-0.1,0.8-0.2,1s-0.4,0.3-0.9,0.3c-0.5,0-0.8-0.1-1-0.3c-0.2-0.2-0.5-0.5-0.8-0.8l-32.3-35.8
			c-0.2-0.2-0.4-0.3-0.6-0.3c-0.1,0-0.2,0.1-0.2,0.3v31.2c0,1.9,1.5,3.1,4.5,3.8c0.8,0.2,1.5,0.3,1.9,0.3c0.4,0,0.7,0.1,0.7,0.3v0.8
			c0,0.2-0.1,0.3-0.3,0.3H528.3z"/>
		<path id="XMLID_36_" class="st0" d="M607.3,31.3c0.2,0,0.3,0.2,0.3,0.7l0.8,6.7c0.1,0.4,0.1,0.7,0.1,0.8c0,0.1-0.2,0.2-0.5,0.2
			c-0.3,0-0.5,0-0.6-0.1c-0.1-0.1-0.2-0.2-0.3-0.4c-0.1-0.2-0.2-0.4-0.3-0.7c-0.1-0.3-0.2-0.5-0.4-0.8c-0.4-1-1.1-1.9-2.1-2.8
			c-2.3-2.2-4.9-3.3-7.8-3.3c-1.7,0-3.4,0.6-4.9,1.7c-1.5,1.1-2.3,2.5-2.3,4c0,1.5,0.3,2.9,0.9,4s1.3,2.2,2.3,3.1
			c0.9,1,2,1.9,3.2,2.8c1.2,0.9,2.4,1.8,3.7,2.7c3.3,2.3,5.7,4.3,7.1,5.9c2.2,2.5,3.4,5.4,3.6,8.6c0,3.5-1.4,6.4-4.1,8.5
			c-2.7,2.1-5.9,3.2-9.5,3.2c-2.3,0-4.2-0.2-5.5-0.7c-1.4-0.5-2.3-0.8-2.8-1c-0.5-0.2-0.9-0.3-1.1-0.3c-0.2,0-0.4,0-0.5,0l-1.5,0.3
			c-0.3,0-0.4-0.2-0.5-0.7c-0.6-5.2-0.9-7.9-0.9-8.2c0-0.3,0-0.5,0.1-0.7s0.2-0.2,0.4-0.2c0.6,0,1.1,0.8,1.6,2.5
			c2.2,4.7,5.8,7,10.9,7c2.3,0,4.3-0.7,6-2.1s2.5-3.3,2.5-5.5c0-3.6-2.2-7-6.5-10.1c-1.2-0.9-3-2.1-5.3-3.7
			c-2.3-1.6-4.2-3.1-5.5-4.7c-2.1-2.4-3.2-5.1-3.2-8.1c0-3,1.2-5.4,3.6-7.3c2.4-1.9,5.1-2.8,8.1-2.8c1.6,0,3.3,0.3,5.2,0.8
			c1.9,0.5,3.2,0.9,4,1.1L607.3,31.3z"/>
		<path id="XMLID_38_" class="st0" d="M625.4,74c0-0.2,0.1-0.3,0.3-0.3h0.9c2,0,3.7-0.4,4.9-1.3s1.9-1.9,1.9-3.1V34.8
			c0-0.4-0.1-0.7-0.3-0.7c-0.2-0.1-0.4-0.1-0.6-0.1h-12c-1.9,0.4-3.2,1.9-3.8,4.5c-0.3,1.4-0.5,2.3-0.6,2.6
			c-0.1,0.4-0.2,0.6-0.3,0.6h-0.6c-0.1,0-0.2,0-0.2-0.1v-1l1.2-9.8c0.1-0.6,0.3-1,0.6-1s0.6,0.2,0.9,0.6s1,0.6,1.9,0.6h33.7
			c0.9,0,1.4-0.1,1.6-0.3c0.2-0.2,0.4-0.4,0.5-0.6s0.4-0.3,0.6-0.3s0.4,0.1,0.5,0.3c0.1,0.2,0.1,0.4,0.2,0.7l1.2,9.8v1
			c0,0.1-0.1,0.1-0.2,0.1h-0.6c-0.2,0-0.3-0.2-0.3-0.5c-0.3-2.1-0.8-3.7-1.4-5c-0.6-1.2-1.6-2-3-2.3h-12c-0.3,0-0.5,0.1-0.6,0.1
			c-0.2,0.1-0.3,0.3-0.3,0.7v34.6c0,1.2,0.6,2.2,1.9,3.1c1.2,0.9,2.9,1.3,4.9,1.3h0.9c0.2,0,0.3,0.1,0.3,0.3v0.8
			c0,0.2-0.1,0.3-0.3,0.3h-21.5c-0.2,0-0.3-0.1-0.3-0.3V74z"/>
		<path id="XMLID_40_" class="st0" d="M667.8,35.9c0-2.5-1.4-3.8-4.3-3.8c-0.5,0-0.7-0.1-0.7-0.3v-0.8c0-0.2,0.1-0.3,0.3-0.3h15.7
			c0.2,0,0.3,0.1,0.3,0.3v0.8c0,0.2-0.5,0.3-1.4,0.3s-1.8,0.3-2.5,0.9c-0.8,0.6-1.2,1.8-1.2,3.6V70c0,2.5,1.4,3.8,4.3,3.8
			c0.4,0,0.7,0.1,0.7,0.3v0.8c0,0.2-0.1,0.3-0.3,0.3H663c-0.2,0-0.3-0.1-0.3-0.3V74c0-0.2,0.5-0.3,1.4-0.3c0.9,0,1.8-0.3,2.5-0.9
			s1.2-1.8,1.2-3.6V35.9z"/>
		<path id="XMLID_42_" class="st0" d="M682,74.8v-0.9c0-0.2,0.1-0.3,0.3-0.3h0.7c0.9-0.1,1.8-0.1,2.7-0.1c0.9,0,1.8-0.1,2.5-0.3
			c1.7-0.5,2.6-1.8,2.6-3.8v-33c0-2.1-1.2-3.4-3.7-3.9c-0.7-0.1-1.4-0.3-2.1-0.4h-0.7c-0.2,0-0.3-0.1-0.3-0.3v-0.8
			c0-0.2,0.1-0.3,0.3-0.3h29.8c0.4,0,0.6,0.1,0.8,0.2c0.2,0.1,0.3,0.4,0.3,0.9l0.6,9.1c0,0.2-0.2,0.3-0.5,0.3
			c-0.3,0-0.5-0.1-0.7-0.3c-0.1-0.2-0.3-1-0.5-2.3s-0.6-2.4-1.1-3.3s-1.4-1.4-2.8-1.7h-13c-0.3,0-0.4,0.1-0.4,0.4v16.2
			c0,0.2,0.1,0.3,0.3,0.3H708c2.8,0,4.2-1.6,4.2-4.9c0-0.2,0.1-0.3,0.3-0.3h0.8c0.2,0,0.3,0.1,0.3,0.3v13.4c0,0.2-0.1,0.3-0.3,0.3
			h-0.8c-0.2,0-0.3-0.1-0.3-0.3c0-3.1-0.9-4.9-2.7-5.3c-0.5-0.1-1-0.2-1.6-0.2h-10.7c-0.2,0-0.3,0.1-0.3,0.3v15.2
			c0,1.6,0.7,2.5,2.2,2.7c0.4,0.1,0.9,0.1,1.3,0.1h10.4c2.1,0,3.8-0.9,5-2.8c0.9-1.4,1.4-2.9,1.6-4.7c0.1-0.6,0.4-0.9,0.9-0.9
			c0.3,0,0.4,0.1,0.4,0.4l-1,10.5c-0.1,0.3-0.3,0.4-0.4,0.4h-34.8C682.1,75,682,75,682,74.8z"/>
		<path id="XMLID_44_" class="st0" d="M723,75c-0.2,0-0.3-0.2-0.3-0.6V74c0-0.2,0.1-0.3,0.3-0.3c0.1,0,0.3,0,0.6-0.1
			c0.3,0,0.6-0.1,0.8-0.1c0.3,0,0.6-0.1,0.8-0.1c0.3-0.1,0.4-0.1,0.5-0.1c2.1-0.5,3.2-1.7,3.2-3.6v-33c0-1.8-0.7-3.1-2.2-3.8
			c-0.9-0.5-1.8-0.7-2.8-0.7h-1.2c-0.2,0-0.3-0.1-0.3-0.3v-0.8c0-0.2,0.1-0.3,0.4-0.3l17.2-0.5h3.2c3.7,0.3,6.8,1.6,9.3,4
			c2.5,2.4,3.7,5.4,3.7,9c0,3.6-1.5,6.3-4.4,8.3c-0.9,0.6-1.9,1.1-3,1.6l9.5,15.5c1.6,2.7,3.9,4.6,6.6,5.7c0.2,0.1,0.3,0.2,0.3,0.4
			c0,0.5-0.3,0.8-1,0.8c-4.7,0-8.4-1.8-11.2-5.3c-0.6-0.8-1.2-1.7-1.8-2.7l-8.1-12.7l-7.4-0.3h-0.3c-0.3,0-0.5,0.1-0.5,0.4v14.4
			c0,1.1,0.3,2,1,2.6s1.8,0.9,3.3,1.2c0.4,0.1,0.9,0.2,1.5,0.3c0.6,0.1,1,0.2,1.2,0.2c0.2,0,0.3,0.1,0.3,0.3v0.8
			c0,0.2-0.1,0.3-0.3,0.3H723z M737.6,32.1c-0.3,0-0.5,0-0.8,0c-0.3,0-0.6,0-1.1,0c-0.4,0-0.7,0.2-0.7,0.5v19l0.1,0.9
			c0.1,0.4,0.3,0.7,0.6,0.7l3.2,0.2c5.9,0,9.4-2.1,10.6-6.3c0.4-1.3,0.6-2.8,0.6-4.5c0-3.3-1-5.9-3.1-7.8c-2.1-1.9-4.7-2.8-7.9-2.8
			c-0.3,0-0.6,0-0.8,0C738.1,32.1,737.8,32.1,737.6,32.1z"/>
		<path id="XMLID_47_" class="st0" d="M767.9,75c-0.2,0-0.3-0.1-0.3-0.3V74c0-0.2,0.1-0.3,0.3-0.3h0.7c1.1,0,1.9-0.1,2.3-0.3
			c1.5-0.8,2.3-2.8,2.3-6.2V34.8c0-1.4-1.4-2.2-4.1-2.5c-0.6-0.1-1-0.1-1.3-0.1c-0.2,0-0.4-0.1-0.4-0.3v-0.8c0-0.2,0.1-0.3,0.3-0.3
			h11.5L809,63.7c0.1,0.1,0.2,0.2,0.2,0.2s0.1,0.1,0.2,0.1s0.1-0.1,0.1-0.3V42.2c0-4.1-0.3-6.9-1-8.1c-0.7-1.3-2.1-1.9-4.2-1.9h-1.6
			c-0.2,0-0.3-0.1-0.3-0.3v-0.8c0-0.2,0.1-0.3,0.3-0.3h16.3c0.2,0,0.3,0.1,0.3,0.3v0.8c0,0.2-0.3,0.3-0.9,0.3s-1.6,0.4-3,1.1
			c-1.4,0.7-2.1,1.6-2.1,2.6v38.3c0,0.5-0.1,0.8-0.2,1s-0.4,0.3-0.9,0.3c-0.5,0-0.8-0.1-1-0.3c-0.2-0.2-0.5-0.5-0.8-0.8L778,38.6
			c-0.2-0.2-0.4-0.3-0.6-0.3c-0.1,0-0.2,0.1-0.2,0.3v31.2c0,1.9,1.5,3.1,4.5,3.8c0.8,0.2,1.5,0.3,1.9,0.3c0.4,0,0.7,0.1,0.7,0.3v0.8
			c0,0.2-0.1,0.3-0.3,0.3H767.9z"/>
		<path id="XMLID_49_" class="st0" d="M837,74.8c0,0.2-0.1,0.3-0.3,0.3h-16c-0.2,0-0.3-0.1-0.3-0.3V74c0-0.2,0.1-0.3,0.4-0.3
			c2.9-0.1,4.8-1.6,5.8-4.6l12.8-36.9c0,0,0-0.1,0-0.2l-0.3-1c0-0.1,0-0.2,0.1-0.2h6.3c0,0,0.1,0,0.2,0.1c0.1,0,0.1,0.1,0.2,0.2
			l13.2,37.1c0.3,0.6,0.5,1.1,0.7,1.5c0.2,0.5,0.4,0.9,0.6,1.3c0.5,0.9,1.3,1.5,2.5,2c1,0.5,1.8,0.7,2.6,0.7c0.2,0,0.3,0.1,0.3,0.3
			v0.7c0,0.2-0.1,0.3-0.3,0.3h-19.1c-0.2,0-0.3-0.1-0.3-0.3V74c0-0.2,0.4-0.3,1.2-0.3s1.4-0.1,1.9-0.1c2.9-0.3,4.3-1.3,4.3-2.9
			c0-0.1,0-0.3-0.1-0.4l-4.7-13.3c0,0-0.1-0.1-0.1-0.3c-0.3-0.7-0.7-1.1-1.3-1.1h-11.1c-0.6,0-1.1,0.3-1.5,1
			c-0.1,0.1-0.1,0.2-0.1,0.3L830,70.6v0.3c0,0.5,0.3,1,0.8,1.5c1.3,1,3,1.5,5.1,1.5h0.8c0.2,0,0.3,0.1,0.3,0.3V74.8z M846.3,52.1
			c0.4,0,0.6-0.2,0.6-0.5c0-0.2,0-0.4-0.1-0.6l-4.7-12.8c-0.2-0.6-0.4-0.8-0.5-0.8s-0.3,0.3-0.5,0.9L836.7,51
			c-0.1,0.2-0.1,0.4-0.1,0.7c0,0.2,0.2,0.4,0.5,0.4H846.3z"/>
	</g>
</g>
</svg>
